<svg xmlns="http://www.w3.org/2000/svg" viewBox="0 0 272.74 166.95"><defs><style>.cls-1{fill:#231f20;}.cls-2{fill:#a7a9ac;}.cls-3{fill:#d1d3d4;}.cls-4{fill:#00aeef;opacity:0.25;}.cls-5{font-size:4px;fill:#939598;font-family:SimplonNorm-Medium, Simplon Norm;letter-spacing:0.2em;}</style></defs><title>guides</title><g id="Layer_2" data-name="Layer 2"><g id="Layer_1-2" data-name="Layer 1"><path class="cls-1" d="M128.68,66.32l14.16,13.57a.8.8,0,0,0,1.24-.17l18.63-31.39a.8.8,0,0,0,.06-.7L144.3.55a.8.8,0,0,0-1.49,0L124.18,47.33a.8.8,0,0,0,.06.71l6,10a.8.8,0,0,0,1.43-.12l11.06-27.83a.8.8,0,0,1,1.53.17l2.65,16.63a.8.8,0,0,0,.65.66l6.21,1.07a.8.8,0,0,1,.27,1.48l-25.21,15A.8.8,0,0,0,128.68,66.32Z"/><path class="cls-2" d="M118.83,161.11v5.78h-1.37v-5.78h-1.83v-1.22h5v1.22Z"/><path class="cls-2" d="M127.47,166.89V164h-2.37v2.93h-1.37v-7h1.37v2.86h2.37v-2.86h1.37v7Z"/><path class="cls-2" d="M132.44,166.89v-7h4.61v1.22h-3.24v1.64h2.76V164h-2.76v1.7h3.24v1.22Z"/><path class="cls-2" d="M144.08,166.89l-1.37-2.79h-1v2.79h-1.37v-7h2.74a2.12,2.12,0,0,1,2.27,2.14,1.89,1.89,0,0,1-1.28,1.84l1.56,3ZM143,161.11h-1.29V163H143a.93.93,0,1,0,0-1.85Z"/><path class="cls-2" d="M153.74,166.89v-4.08l-1.34,2.65h-.92l-1.35-2.65v4.08h-1.37v-7h1.35l1.83,3.79,1.82-3.79h1.35v7Z"/><path class="cls-2" d="M162.69,166.89l-.41-1.24h-2.49l-.42,1.24h-1.43l2.55-7h1.07l2.56,7ZM161.06,162l-.88,2.55h1.74Z"/><path class="cls-2" d="M167,166.89v-7h1.37v5.78h3.17v1.22Z"/><rect class="cls-3" x="17.17" y="79.89" width="0.25" height="40"/><rect class="cls-4" x="144.83" y="32.21" width="0.25" height="255.57" transform="translate(304.95 15.05) rotate(90)"/><rect class="cls-4" x="144.83" y="39.04" width="0.25" height="255.57" transform="translate(311.78 21.87) rotate(90)"/><rect class="cls-3" x="17.17" y="139.86" width="0.25" height="20"/><rect class="cls-4" x="144.83" y="12.21" width="0.25" height="255.57" transform="translate(284.95 -4.95) rotate(90)"/><rect class="cls-4" x="144.83" y="-7.79" width="0.25" height="255.57" transform="translate(264.95 -24.95) rotate(90)"/><rect class="cls-4" x="144.83" y="-47.79" width="0.25" height="255.57" transform="translate(224.95 -64.95) rotate(90)"/><path class="cls-1" d="M94.6,139.87,90,128.2a.4.4,0,0,0-.74,0l-2.52,6.35a.4.4,0,0,0,.37.55h2.28a.42.42,0,0,1,.39.59l-1.74,4.19a.4.4,0,0,1-.37.25h-8a.4.4,0,0,1-.37-.55l7.75-19.45a.4.4,0,0,1,.37-.25h4.45a.4.4,0,0,1,.37.25L100,139.58a.4.4,0,0,1-.37.55H95A.4.4,0,0,1,94.6,139.87Z"/><path class="cls-1" d="M138.52,139.87l4.53-11.59a.4.4,0,0,1,.74,0l2.52,6.35a.4.4,0,0,1-.37.55h-2.29a.4.4,0,0,0-.37.55l1.65,4.14a.4.4,0,0,0,.37.25h8.15a.4.4,0,0,0,.37-.55L146,120.13a.4.4,0,0,0-.37-.25h-4.46a.4.4,0,0,0-.37.25l-7.72,19.45a.4.4,0,0,0,.37.55h4.65A.4.4,0,0,0,138.52,139.87Z"/><path class="cls-1" d="M202.94,122.2a7.46,7.46,0,0,0-5.69-2.29h-2.51a7.46,7.46,0,0,0-5.69,2.29c-2.14,2.14-2.06,4.52-2.06,7.58s-.09,5.92,2.06,8.06a7.46,7.46,0,0,0,5.69,2.29h2.51a7.46,7.46,0,0,0,5.69-2.29c2.14-2.14,2.06-5,2.06-8.06S205.09,124.34,202.94,122.2Zm-3.69,12.55a2.52,2.52,0,0,1-2,.91h-2.51a2.52,2.52,0,0,1-2-.91c-.46-.6-.74-1.26-.74-5s.29-3.92.74-4.52a2.51,2.51,0,0,1,2-.89h2.51a2.51,2.51,0,0,1,2,.89c.46.6.74.8.74,4.52S199.71,134.15,199.26,134.75Z"/><path class="cls-1" d="M66.9,133H62.25a.4.4,0,0,0-.4.4v6.32a.4.4,0,0,1-.4.4h-4.2a.4.4,0,0,1-.4-.4V120.31a.4.4,0,0,1,.4-.4H66.9c4.52,0,6.95,3.2,6.95,6.55S71.42,133,66.9,133Zm-.23-8.6H62.25a.4.4,0,0,0-.4.4v3.32a.4.4,0,0,0,.4.4h4.42a2.06,2.06,0,1,0,0-4.12Z"/><path class="cls-1" d="M225.82,129.58l6.95-9a.4.4,0,0,0-.32-.64h-5.08a.4.4,0,0,0-.32.16l-4.14,5.37a.4.4,0,0,1-.63,0l-4.12-5.37a.4.4,0,0,0-.32-.16h-5.08a.4.4,0,0,0-.32.64l6.93,9a.4.4,0,0,1,0,.49l-7.22,9.41a.4.4,0,0,0,.32.64h5.11a.4.4,0,0,0,.32-.16l4.38-5.75a.4.4,0,0,1,.64,0l4.4,5.75a.4.4,0,0,0,.32.16h5a.4.4,0,0,0,.32-.64l-7.16-9.41A.4.4,0,0,1,225.82,129.58Z"/><path class="cls-1" d="M119.71,139.87l-2.64-6.62a.4.4,0,0,0-.37-.25H113.5a.4.4,0,0,0-.4.4v6.33a.4.4,0,0,1-.4.4h-4.2a.4.4,0,0,1-.4-.4V120.27a.4.4,0,0,1,.4-.4h9.65c4.52,0,6.95,3.16,6.95,6.5a5.82,5.82,0,0,1-3,5.14c-.18.1-.16.34-.06.53l3,7.53a.4.4,0,0,1-.37.55h-4.59A.4.4,0,0,1,119.71,139.87Zm-1.78-15.55H113.5a.4.4,0,0,0-.4.4V128a.4.4,0,0,0,.4.4h4.42a2.06,2.06,0,1,0,0-4.12Z"/><path class="cls-1" d="M176.53,138.13a7.6,7.6,0,0,1-5.49,2H162.3a.4.4,0,0,1-.4-.4V120.27a.4.4,0,0,1,.4-.4H171a7.6,7.6,0,0,1,5.49,2c2.37,2.36,2.12,4.95,2.12,8.13S178.91,135.77,176.53,138.13Zm-3.43-12.68a2.6,2.6,0,0,0-2.4-1.14h-3.4a.4.4,0,0,0-.4.4v10.58a.4.4,0,0,0,.4.4h3.4a2.6,2.6,0,0,0,2.4-1.14c.4-.57.54-1.11.54-4.55S173.5,126,173.1,125.45Z"/><rect class="cls-3" x="17.17" y="119.89" width="0.25" height="20"/><rect class="cls-3" x="17.17" y="159.86" width="0.25" height="6.96"/><text class="cls-5" transform="translate(0 164.5)">0.35x</text><text class="cls-5" transform="translate(8.52 130.02)">1x</text><text class="cls-5" transform="translate(8.52 149.86)">1x</text><text class="cls-5" transform="translate(7.88 99.89)">2x</text><rect class="cls-4" x="144.83" y="-127.66" width="0.25" height="255.57" transform="translate(145.08 -144.83) rotate(90)"/><rect class="cls-3" x="17.17" y="0.13" width="0.25" height="80"/><text class="cls-5" transform="translate(7.88 38.82)">4x</text></g></g></svg>