<svg xmlns="http://www.w3.org/2000/svg" viewBox="0 0 345.77 110.46"><defs><style>.cls-1{fill:#ec008c;}.cls-1,.cls-2{opacity:0.25;}.cls-2{fill:#00aeef;}.cls-3{fill:#231f20;}.cls-4{fill:#d1d3d4;}</style></defs><title>guides-separate</title><g id="Layer_2" data-name="Layer 2"><g id="Layer_1-2" data-name="Layer 1"><polygon class="cls-1" points="137 110.18 136.75 110.18 136.62 0.09 136.87 0.09 137 110.18"/><rect class="cls-1" x="153.5" y="0.09" width="0.25" height="110.09"/><rect class="cls-2" x="223.13" y="-77.6" width="0.25" height="244.51" transform="translate(267.92 -178.6) rotate(90)"/><rect class="cls-1" x="162.84" y="-4.17" width="0.25" height="118.62" transform="translate(31.98 -56.41) rotate(21.72)"/><rect class="cls-1" x="176.02" y="-4.07" width="0.25" height="118.41" transform="translate(360.19 41.15) rotate(158.28)"/><rect class="cls-2" x="223.13" y="-57.6" width="0.25" height="244.51" transform="translate(287.92 -158.6) rotate(90)"/><rect class="cls-1" x="216.63" y="-4.16" width="0.25" height="118.59" transform="translate(35.8 -76.32) rotate(21.72)"/><rect class="cls-1" x="229.83" y="-4.07" width="0.25" height="118.51" transform="translate(464 21.33) rotate(158.28)"/><rect class="cls-1" x="171.43" y="-4.16" width="0.25" height="118.59" transform="translate(32.59 -59.59) rotate(21.72)"/><rect class="cls-1" x="221.1" y="-4.07" width="0.25" height="118.41" transform="translate(447.14 24.47) rotate(158.28)"/><rect class="cls-1" x="241.8" y="0.09" width="0.25" height="110.09"/><rect class="cls-1" x="258.31" y="0.09" width="0.25" height="110.09"/><rect class="cls-1" x="284.65" y="0.09" width="0.25" height="110.09"/><rect class="cls-1" x="298.89" y="-14.02" width="0.25" height="138.53" transform="translate(94.92 -170.16) rotate(37.37)"/><polygon class="cls-1" points="262.78 110.33 262.58 110.18 345.54 1.81 345.74 1.96 262.78 110.33"/><rect class="cls-1" x="304.65" y="-13.65" width="0.25" height="134.67" transform="translate(579.56 -88.64) rotate(142.63)"/><rect class="cls-1" x="299.98" y="-14.02" width="0.25" height="138.27" transform="translate(572.06 -83.25) rotate(142.63)"/><rect class="cls-2" x="223.09" y="-64.72" width="0.25" height="244.51" transform="translate(280.75 -165.68) rotate(90)"/><rect class="cls-1" x="201.08" y="-4.07" width="0.25" height="118.51" transform="translate(408.55 31.97) rotate(158.28)"/><rect class="cls-1" x="195.89" y="-4.07" width="0.25" height="118.51" transform="translate(398.53 33.89) rotate(158.28)"/><rect class="cls-1" x="141.5" y="0.09" width="0.25" height="110.09"/><rect class="cls-1" x="192.72" y="0.09" width="0.25" height="110.09"/><rect class="cls-1" x="246.56" y="0.09" width="0.25" height="110.09"/><rect class="cls-1" x="271.77" y="0.09" width="0.25" height="110.09"/><rect class="cls-1" x="279.9" y="0.09" width="0.25" height="110.09"/><rect class="cls-1" x="159.18" y="0.09" width="0.25" height="110.09"/><rect class="cls-1" x="233.5" y="0.09" width="0.25" height="110.09"/><rect class="cls-1" x="188.02" y="0.09" width="0.25" height="110.09"/><rect class="cls-1" x="179.72" y="0.09" width="0.25" height="110.09"/><rect class="cls-1" x="266.74" y="0.09" width="0.25" height="110.09"/><rect class="cls-1" x="213.02" y="0.09" width="0.25" height="110.09"/><rect class="cls-1" x="204.71" y="0.09" width="0.25" height="110.09"/><rect class="cls-1" x="291.9" y="0.09" width="0.25" height="110.09"/><path class="cls-3" d="M174.5,64.53l-4.56-11.66a.4.4,0,0,0-.74,0l-2.52,6.35a.4.4,0,0,0,.37.55h2.28a.42.42,0,0,1,.39.59L168,64.54a.4.4,0,0,1-.37.25h-8a.4.4,0,0,1-.37-.55L167,44.79a.4.4,0,0,1,.37-.25h4.45a.4.4,0,0,1,.37.25l7.75,19.45a.4.4,0,0,1-.37.55h-4.66A.4.4,0,0,1,174.5,64.53Z"/><path class="cls-3" d="M218.42,64.53,223,52.95a.4.4,0,0,1,.74,0l2.52,6.35a.4.4,0,0,1-.37.55h-2.29a.4.4,0,0,0-.37.55l1.65,4.14a.4.4,0,0,0,.37.25h8.15a.4.4,0,0,0,.37-.55l-7.78-19.45a.4.4,0,0,0-.37-.25h-4.46a.4.4,0,0,0-.37.25L213,64.24a.4.4,0,0,0,.37.55h4.65A.4.4,0,0,0,218.42,64.53Z"/><path class="cls-3" d="M282.84,46.86a7.46,7.46,0,0,0-5.69-2.29h-2.51A7.46,7.46,0,0,0,269,46.86c-2.14,2.14-2.06,4.52-2.06,7.58s-.09,5.92,2.06,8.06a7.46,7.46,0,0,0,5.69,2.29h2.51a7.46,7.46,0,0,0,5.69-2.29c2.14-2.14,2.06-5,2.06-8.06S285,49,282.84,46.86Zm-3.69,12.55a2.52,2.52,0,0,1-2,.91h-2.51a2.52,2.52,0,0,1-2-.91c-.46-.6-.74-1.26-.74-5s.29-3.92.74-4.52a2.51,2.51,0,0,1,2-.89h2.51a2.51,2.51,0,0,1,2,.89c.46.6.74.8.74,4.52S279.61,58.81,279.16,59.41Z"/><path class="cls-3" d="M146.8,57.66h-4.65a.4.4,0,0,0-.4.4v6.32a.4.4,0,0,1-.4.4h-4.2a.4.4,0,0,1-.4-.4V45a.4.4,0,0,1,.4-.4h9.65c4.52,0,6.95,3.2,6.95,6.55S151.32,57.66,146.8,57.66Zm-.23-8.6h-4.42a.4.4,0,0,0-.4.4v3.32a.4.4,0,0,0,.4.4h4.42a2.06,2.06,0,1,0,0-4.12Z"/><path class="cls-3" d="M305.72,54.24l6.95-9a.4.4,0,0,0-.32-.64h-5.08a.4.4,0,0,0-.32.16l-4.14,5.37a.4.4,0,0,1-.63,0l-4.12-5.37a.4.4,0,0,0-.32-.16h-5.08a.4.4,0,0,0-.32.64l6.93,9a.4.4,0,0,1,0,.49l-7.22,9.41a.4.4,0,0,0,.32.64h5.11a.4.4,0,0,0,.32-.16l4.38-5.75a.4.4,0,0,1,.64,0l4.4,5.75a.4.4,0,0,0,.32.16h5a.4.4,0,0,0,.32-.64l-7.16-9.41A.4.4,0,0,1,305.72,54.24Z"/><path class="cls-3" d="M199.61,64.53,197,57.91a.4.4,0,0,0-.37-.25H193.4a.4.4,0,0,0-.4.4v6.33a.4.4,0,0,1-.4.4h-4.2a.4.4,0,0,1-.4-.4V44.93a.4.4,0,0,1,.4-.4h9.65c4.52,0,6.95,3.16,6.95,6.5a5.82,5.82,0,0,1-3,5.14c-.18.1-.16.34-.06.53l3,7.53a.4.4,0,0,1-.37.55H200A.4.4,0,0,1,199.61,64.53ZM197.83,49H193.4a.4.4,0,0,0-.4.4V52.7a.4.4,0,0,0,.4.4h4.42a2.06,2.06,0,1,0,0-4.12Z"/><path class="cls-3" d="M256.43,62.79a7.6,7.6,0,0,1-5.49,2h-8.74a.4.4,0,0,1-.4-.4V44.93a.4.4,0,0,1,.4-.4h8.74a7.6,7.6,0,0,1,5.49,2c2.37,2.36,2.12,4.95,2.12,8.13S258.81,60.43,256.43,62.79ZM253,50.11A2.6,2.6,0,0,0,250.6,49h-3.4a.4.4,0,0,0-.4.4V59.95a.4.4,0,0,0,.4.4h3.4a2.6,2.6,0,0,0,2.4-1.14c.4-.57.54-1.11.54-4.55S253.4,50.68,253,50.11Z"/><rect class="cls-4" x="223.25" y="-122.1" width="0.25" height="244.79" transform="translate(223.67 -223.08) rotate(90)"/><rect class="cls-4" x="223.25" y="-12.34" width="0.25" height="244.79" transform="translate(333.43 -113.32) rotate(90)"/><rect class="cls-4" x="100.86" y="0.17" width="0.25" height="110.01"/><rect class="cls-4" x="345.52" y="0.17" width="0.25" height="110.01"/><rect class="cls-1" x="42.39" y="1.46" width="0.25" height="109"/><polygon class="cls-1" points="5.1 110.17 4.87 110.08 47.91 1.68 48.14 1.77 5.1 110.17"/><rect class="cls-1" x="37.55" y="-2.5" width="0.25" height="116.69" transform="translate(52 121.67) rotate(-158.28)"/><path class="cls-3" d="M28.08,81,41.87,94.19A.8.8,0,0,0,43.11,94L61.29,63.4a.8.8,0,0,0,.06-.7l-18-45.93a.8.8,0,0,0-1.49,0L23.67,62.41a.8.8,0,0,0,.06.71l5.82,9.7A.8.8,0,0,0,31,72.7L41.74,45.62a.8.8,0,0,1,1.53.17l2.58,16.16a.8.8,0,0,0,.65.66l6,1a.8.8,0,0,1,.27,1.48L28.23,79.71A.8.8,0,0,0,28.08,81Z"/><rect class="cls-2" x="41.88" y="52.41" width="0.25" height="84" transform="translate(136.41 52.41) rotate(90)"/><rect class="cls-2" x="42.21" y="-25.94" width="0.25" height="84.66" transform="translate(58.72 -25.94) rotate(90)"/><rect class="cls-4" x="0.11" y="1.34" width="0.25" height="109"/><rect class="cls-4" x="84.66" y="1.29" width="0.25" height="109"/><rect class="cls-4" x="42.39" y="-40.87" width="0.25" height="84.79" transform="translate(44.04 -41) rotate(90)"/><rect class="cls-4" x="42.31" y="67.87" width="0.25" height="84.62" transform="translate(152.61 67.74) rotate(90)"/></g></g></svg>