<svg xmlns="http://www.w3.org/2000/svg" viewBox="0 0 84.91 109.17"><defs><style>.cls-1{fill:#ec008c;}.cls-1,.cls-3{opacity:0.25;}.cls-2{fill:#231f20;}.cls-3{fill:#00aeef;}.cls-4{fill:#d1d3d4;}</style></defs><title>mark-guides</title><g id="Layer_2" data-name="Layer 2"><g id="Layer_1-2" data-name="Layer 1"><rect class="cls-1" x="42.39" y="0.17" width="0.25" height="109"/><polygon class="cls-1" points="5.1 108.88 4.87 108.78 47.91 0.39 48.14 0.48 5.1 108.88"/><rect class="cls-1" x="37.55" y="-3.79" width="0.25" height="116.69" transform="translate(52.48 119.18) rotate(-158.28)"/><path class="cls-2" d="M28.08,79.69,41.87,92.9a.8.8,0,0,0,1.24-.17L61.29,62.11a.8.8,0,0,0,.06-.7l-18-45.93a.8.8,0,0,0-1.49,0L23.67,61.12a.8.8,0,0,0,.06.71l5.82,9.7A.8.8,0,0,0,31,71.41L41.74,44.33a.8.8,0,0,1,1.53.17l2.58,16.16a.8.8,0,0,0,.65.66l6,1a.8.8,0,0,1,.27,1.48L28.23,78.42A.8.8,0,0,0,28.08,79.69Z"/><rect class="cls-3" x="41.88" y="51.12" width="0.25" height="84" transform="translate(135.12 51.12) rotate(90)"/><rect class="cls-3" x="42.21" y="-27.23" width="0.25" height="84.66" transform="translate(57.43 -27.23) rotate(90)"/><rect class="cls-4" x="0.11" y="0.05" width="0.25" height="109"/><rect class="cls-4" x="84.66" width="0.25" height="109"/><rect class="cls-4" x="42.39" y="-42.16" width="0.25" height="84.79" transform="translate(42.75 -42.29) rotate(90)"/><rect class="cls-4" x="42.31" y="66.58" width="0.25" height="84.62" transform="translate(151.32 66.45) rotate(90)"/></g></g></svg>