<svg xmlns="http://www.w3.org/2000/svg" viewBox="0 0 74.9 75"><defs><style>.cls-1{fill:#231f20;}</style></defs><title>Asset 11</title><g id="Layer_2" data-name="Layer 2"><g id="Layer_1-2" data-name="Layer 1"><path class="cls-1" d="M37.4,0a37.5,37.5,0,1,1,0,75A37.17,37.17,0,0,1,0,37.6,37.34,37.34,0,0,1,37.4,0Zm0,58.33c11.46,0,20.83-8.39,20.83-20.73S37.4,23,37.4,8.33c0,0-20.73,17.82-20.73,29.28A20.85,20.85,0,0,0,37.4,58.33Zm5.7-6.87c0-3.11-5.63-8-5.63-8,0,4-5.66,4.6-5.66,8a5.5,5.5,0,0,0,5.66,5.63A5.66,5.66,0,0,0,43.09,51.46Z"/></g></g></svg>