<svg xmlns="http://www.w3.org/2000/svg" viewBox="0 0 56.07 114.58"><defs><style>.cls-1{fill:#231f20;}</style></defs><title>Asset 4</title><g id="Layer_2" data-name="Layer 2"><g id="Layer_1-2" data-name="Layer 1"><path class="cls-1" d="M55.93,68,29.9,1.27a2,2,0,0,0-3.73,0L.14,68a2,2,0,0,0,.14,1.75l26,43.85a2,2,0,0,0,3.44,0l26-43.85A2,2,0,0,0,55.93,68ZM18.71,68l7.81-19.15a2,2,0,0,1,3.73.05L37.4,68a2,2,0,0,1-.15,1.72l-2.69,4.55a2,2,0,0,1-3.46,0l-1.33-2.32a2,2,0,0,0-3.47,0L25,74.26a2,2,0,0,1-3.46,0l-2.67-4.52A2,2,0,0,1,18.71,68Z"/></g></g></svg>