<svg xmlns="http://www.w3.org/2000/svg" viewBox="0 0 390.77 144.68"><defs><style>.cls-1{fill:#231f20;}.cls-2{fill:#fff;}</style></defs><title>Asset 18</title><g id="Layer_2" data-name="Layer 2"><g id="Layer_1-2" data-name="Layer 1"><path class="cls-1" d="M22.69,36.85H14.08V57.28H0V0H22.69C35.4,0,42.24,9,42.24,18.42S35.4,36.85,22.69,36.85ZM22,12.63h-8V24.22h8a5.8,5.8,0,1,0,0-11.59Z"/><path class="cls-1" d="M102.57,57.28l-2.66-8.53H82.29l-2.82,8.53H64.76L85.59,0H96.45l20.84,57.28ZM91.39,21.72,86.24,37h10Z"/><path class="cls-1" d="M176.18,57.28,166,36h-4.75V57.28H147.21V0H169.9c12.71,0,19.55,9,19.55,18.42a16.47,16.47,0,0,1-9.33,15l12.39,23.89Zm-6.92-44.65h-8V24.22h8a5.8,5.8,0,1,0,0-11.59Z"/><polygon class="cls-2" points="82.13 49.3 87.68 32.76 95.19 56.57 82.13 49.3"/><polygon class="cls-2" points="14.1 37.03 14.05 17.59 21.56 41.39 14.1 37.03"/><path class="cls-1" d="M126.5,86.92l2.66,8.53h17.62l2.82-8.53h14.72L143.47,144.2H132.61L111.78,86.92Zm11.18,35.56,5.15-15.29h-10Z"/><path class="cls-1" d="M200.21,92.55c3.94-3.94,9.49-5.63,15.45-5.63H236.9V144.2H215.66c-6,0-11.51-1.69-15.45-5.63-6.68-6.68-6-14-6-23S193.53,99.23,200.21,92.55Zm9.65,35.88c1.29,1.93,3.22,3.22,6.76,3.22h6.19V99.47h-6.19c-3.54,0-5.47,1.29-6.76,3.22-1.13,1.61-1.53,3.14-1.53,12.87S208.74,126.82,209.87,128.43Z"/><path class="cls-1" d="M274.68,92.87c4.18-4.18,9-6.44,16-6.44s11.83,2.25,16,6.44c6,6,5.79,14.08,5.79,22.69s.24,16.65-5.79,22.69c-4.18,4.18-9,6.44-16,6.44s-11.83-2.25-16-6.44c-6-6-5.79-14.08-5.79-22.69S268.65,98.9,274.68,92.87Zm10.38,36.77a7.61,7.61,0,0,0,11.26,0c1.29-1.69,2.09-3.62,2.09-14.08s-.81-12.31-2.09-14a7.45,7.45,0,0,0-11.26,0c-1.29,1.69-2.09,3.54-2.09,14S283.77,127.95,285.06,129.64Z"/><path class="cls-1" d="M390.77,86.92l-17.86,29.37,16.73,27.92h-16L365.26,128,356.9,144.2h-16l16.73-27.92L339.76,86.92h16.09l9.41,17.62,9.41-17.62Z"/><polygon class="cls-2" points="147.05 94.49 141.5 111.03 133.99 87.22 147.05 94.49"/><polygon class="cls-2" points="222.82 86.83 222.75 103.37 214.24 79.57 222.82 86.83"/><polygon class="cls-2" points="298.45 85.26 298.34 110.97 289.81 83.92 298.45 85.26"/></g></g></svg>