<svg xmlns="http://www.w3.org/2000/svg" viewBox="0 0 428 60"><defs><style>.cls-1{fill:#231f20;}</style></defs><title>Asset 17</title><g id="Layer_2" data-name="Layer 2"><g id="Layer_1-2" data-name="Layer 1"><path class="cls-1" d="M336.14.44a29.78,29.78,0,1,1,0,59.56,29.52,29.52,0,0,1-29.7-29.7A29.66,29.66,0,0,1,336.14.44Zm0,46.32c9.1,0,16.54-6.66,16.54-16.46,0-9.28-14.83-11.41-16.41-21.47a.92.92,0,0,0-1.54-.52c-4,3.66-15.06,14.53-15.06,22A16.56,16.56,0,0,0,336.14,46.76Zm4.53-5.46c0-2.47-4.47-6.32-4.47-6.32,0,3.16-4.49,3.65-4.49,6.32a4.37,4.37,0,0,0,4.49,4.47A4.5,4.5,0,0,0,340.67,41.31Z"/><path class="cls-1" d="M0,2.41A1.58,1.58,0,0,1,1.58.83H21.63A18.61,18.61,0,0,1,40.27,19.22,18.71,18.71,0,0,1,21.71,37.94H13V57.49a1.64,1.64,0,0,1-1.58,1.58H1.58A1.58,1.58,0,0,1,0,57.49ZM20.88,25.79a6.53,6.53,0,0,0,6.57-6.57,6.35,6.35,0,0,0-6.57-6.16H13V25.79Z"/><path class="cls-1" d="M45.67,56.91l26-56A1.69,1.69,0,0,1,73.13,0H74a1.69,1.69,0,0,1,1.41.92l26,56A1.47,1.47,0,0,1,100,59.07H90.77c-1.5,0-2.16-.5-2.91-2.08l-3-6.57H62.23l-3,6.66a3.1,3.1,0,0,1-3,2H47.09A1.47,1.47,0,0,1,45.67,56.91ZM79.87,39.1,73.55,25.38h-.08L67.22,39.1Z"/><path class="cls-1" d="M115.72,2.41A1.58,1.58,0,0,1,117.3.83h24.88a18.09,18.09,0,0,1,18.14,18c0,7.65-5.07,13.81-12.31,16.72l11.4,21.13A1.57,1.57,0,0,1,158,59.07H146.92a1.53,1.53,0,0,1-1.33-.75l-11.07-22h-5.74V57.49a1.64,1.64,0,0,1-1.58,1.58h-9.9a1.58,1.58,0,0,1-1.58-1.58Zm25.38,23.3a6.67,6.67,0,0,0,6.32-6.66,6.37,6.37,0,0,0-6.32-6.32H128.78v13Z"/><path class="cls-1" d="M171.46,56.91l26-56A1.69,1.69,0,0,1,198.92,0h.83a1.69,1.69,0,0,1,1.41.92l26,56a1.47,1.47,0,0,1-1.41,2.16h-9.24c-1.5,0-2.16-.5-2.91-2.08l-3-6.57H188l-3,6.66a3.1,3.1,0,0,1-3,2h-9.15A1.47,1.47,0,0,1,171.46,56.91Zm34.19-17.8-6.32-13.73h-.08L193,39.1Z"/><path class="cls-1" d="M241.51,2.41A1.56,1.56,0,0,1,243,.83h20.3a29.12,29.12,0,1,1,0,58.24H243a1.56,1.56,0,0,1-1.5-1.58Zm21,44.35c9.4,0,16.22-7.41,16.22-16.89s-6.82-16.81-16.22-16.81h-8v33.7Z"/><path class="cls-1" d="M365.72,30"/><path class="cls-1" d="M394.76,29.2,378,3.16A1.5,1.5,0,0,1,379.36.83h12.15a1.79,1.79,0,0,1,1.33.75l9.57,15.47h.08l9.73-15.47a1.65,1.65,0,0,1,1.33-.75h12.15c1.41,0,2.16,1.25,1.41,2.33l-16.89,26L427.7,56.74a1.45,1.45,0,0,1-1.33,2.33H414.81a1.85,1.85,0,0,1-1.41-.75l-10.9-16.81h-.17L391.68,58.32a1.82,1.82,0,0,1-1.41.75H378.7c-1.41,0-2.16-1.25-1.41-2.33Z"/></g></g></svg>