<svg xmlns="http://www.w3.org/2000/svg" viewBox="0 0 51.67 79.74"><defs><style>.cls-1{fill:#231f20;}</style></defs><title>Asset 12</title><g id="Layer_2" data-name="Layer 2"><g id="Layer_1-2" data-name="Layer 1"><path class="cls-1" d="M25.84,0S0,34.12,0,56.22C0,70.1,10.19,75.82,17.77,78.16a8.08,8.08,0,0,1-2-5.58c0-8.61,10.06-21.9,10.06-21.9S35.9,63.74,35.9,72.58a8.22,8.22,0,0,1-2.06,5.75c7.59-2.2,17.84-7.82,17.84-22.11C51.67,33.53,25.84,0,25.84,0Z"/><path class="cls-1" d="M21.78,76c0,3.47,4.05,3.69,4.05,3.69s4.05-.13,4.05-3.69-4.05-8.82-4.05-8.82S21.78,72.58,21.78,76Z"/></g></g></svg>