<svg xmlns="http://www.w3.org/2000/svg" viewBox="0 0 445.13 60"><defs><style>.cls-1{fill:#231f20;}</style></defs><title>Asset 14</title><g id="Layer_2" data-name="Layer 2"><g id="Layer_1-2" data-name="Layer 1"><path class="cls-1" d="M43.95,11.86C42.37,4,36.6,0,24.45,0H0V12H23.73"/><path class="cls-1" d="M44.41,20.51"/><path class="cls-1" d="M43.95,25.36c-1.58,7.86-7.34,11.86-19.5,11.86H0v-12H23.73"/><polyline class="cls-1" points="0 48.82 0 59.5 13.48 59.5 13.48 48.64"/><polyline class="cls-1" points="52.54 48.82 46.52 59.5 60.01 59.5 66.03 48.64"/><polyline class="cls-1" points="97.23 59.32 91.22 48.64 104.7 48.64 110.72 59.5"/><polyline class="cls-1" points="64.06 25.44 57.18 36.98 100.75 36.98 94.73 25.26"/><polyline class="cls-1" points="75.23 0.3 68.35 11.83 89.57 11.83 83.56 0.12"/><path class="cls-1" d="M167.29,11.86C165.72,4,159.95,0,147.8,0H123.35V12h23.73"/><path class="cls-1" d="M167.29,25.36c-1.58,7.86-7.34,11.86-19.5,11.86H123.35v-12h23.73"/><polyline class="cls-1" points="157.54 59.32 151.53 48.64 165.01 48.64 171.03 59.5"/><polyline class="cls-1" points="123.34 48.82 123.34 59.5 136.83 59.5 136.83 48.64"/><polyline class="cls-1" points="186.46 48.82 180.44 59.5 193.92 59.5 199.94 48.64"/><polyline class="cls-1" points="231.15 59.32 225.13 48.64 238.61 48.64 244.63 59.5"/><polyline class="cls-1" points="197.97 25.44 191.1 36.98 234.66 36.98 228.64 25.26"/><polyline class="cls-1" points="209.14 0.3 202.27 11.83 223.49 11.83 217.47 0.12"/><path class="cls-1" d="M302.94,11.86C301.36,4,295.6,0,283.44,0H259V12h23.73"/><path class="cls-1" d="M302.94,47.76c-1.58,7.86-7.34,11.86-19.5,11.86H259v-12h23.73"/><polyline class="cls-1" points="258.46 25.87 258.46 36.55 271.95 36.55 271.95 25.69"/><polyline class="cls-1" points="289.46 25.87 289.46 36.55 302.94 36.55 302.94 25.69"/><line class="cls-1" x1="325.23" y1="11.96" x2="348.96" y2="11.96"/><line class="cls-1" x1="369.18" y1="11.96" x2="345.45" y2="11.96"/><path class="cls-1" d="M349.68,0h-5c-12.15,0-17.92,4-19.5,11.86h43.95C367.6,4,361.84,0,349.68,0Z"/><path class="cls-1" d="M349.68,60h-5c-12.15,0-17.92-4-19.5-11.86h43.95C367.6,56,361.84,60,349.68,60Z"/><polyline class="cls-1" points="355.69 25.87 355.69 36.55 369.18 36.55 369.18 25.69"/><polyline class="cls-1" points="325.01 25.87 325.01 36.55 338.5 36.55 338.5 25.69"/><polyline class="cls-1" points="186.46 48.82 180.44 59.5 193.92 59.5 199.94 48.64"/><polyline class="cls-1" points="386.96 48.82 380.94 59.5 394.43 59.5 400.44 48.64"/><polyline class="cls-1" points="431.65 59.32 425.63 48.64 439.12 48.64 445.13 59.5"/><polyline class="cls-1" points="386.96 48.82 380.94 59.5 394.43 59.5 400.44 48.64"/><polyline class="cls-1" points="439.12 11.78 445.13 1.1 431.65 1.1 425.63 11.96"/><polyline class="cls-1" points="394.43 1.28 400.44 11.96 386.96 11.96 380.94 1.1"/><polyline class="cls-1" points="439.12 11.78 445.13 1.1 431.65 1.1 425.63 11.96"/><polyline class="cls-1" points="429.37 35.55 435.38 24.87 421.9 24.87 415.88 35.73"/><path class="cls-1" d="M390.69,35.73"/><polygon class="cls-1" points="404.18 24.87 390.69 24.87 393.75 30.3 390.69 35.73 404.18 35.73 407.18 30.3 404.18 24.87"/><polygon class="cls-1" points="421.9 24.87 435.38 24.87 432.32 30.3 435.38 35.73 421.9 35.73 418.89 30.3 421.9 24.87"/></g></g></svg>