<svg xmlns="http://www.w3.org/2000/svg" viewBox="0 0 423.37 68.57"><defs><style>.cls-1{fill:#231f20;}</style></defs><title>Asset 15</title><g id="Layer_2" data-name="Layer 2"><g id="Layer_1-2" data-name="Layer 1"><path class="cls-1" d="M26.39,47.38H16.9A1.91,1.91,0,0,0,15,49.29V65.66a1.91,1.91,0,0,1-1.91,1.91H1.91A1.91,1.91,0,0,1,0,65.66V2.91A1.91,1.91,0,0,1,1.91,1H27.19C43.38,1,49.38,7.4,49.38,19.89v8.7C49.38,41.08,42.58,47.38,26.39,47.38Z"/><path class="cls-1" d="M107.27,67.57H51.75a1.91,1.91,0,0,1-1.83-2.47L69.05,2.35A1.91,1.91,0,0,1,70.88,1H88a1.91,1.91,0,0,1,1.83,1.35L109.09,65.1A1.91,1.91,0,0,1,107.27,67.57Z"/><path class="cls-1" d="M120.31,67.57a1.91,1.91,0,0,1-1.91-1.91V2.91A1.91,1.91,0,0,1,120.31,1h25.78c16.19,0,22.19,6.4,22.19,18.89v8.2c0,7.47-2.43,12.75-7.8,15.77a1.93,1.93,0,0,0-.58,2.79l12.65,17.91a1.91,1.91,0,0,1-1.56,3Z"/><path class="cls-1" d="M237.69,67.57H182.18a1.91,1.91,0,0,1-1.83-2.47L199.47,2.35A1.91,1.91,0,0,1,201.3,1h17.16a1.91,1.91,0,0,1,1.83,1.35L239.51,65.1A1.91,1.91,0,0,1,237.69,67.57Z"/><path class="cls-1" d="M276.34,67.57H252.46a1.91,1.91,0,0,1-1.91-1.91V2.91A1.91,1.91,0,0,1,252.46,1h23.88c16.4,0,22.49,8.3,22.49,17.29v32C298.83,59.18,292.73,67.57,276.34,67.57Z"/><path class="cls-1" d="M361.78,48.18c0,10.1-7,20.39-25.79,20.39S310.2,58.28,310.2,48.18V20.39C310.2,10.3,317.2,0,336,0s25.79,10.3,25.79,20.39Z"/><path class="cls-1" d="M405.21,34.77l17.88,29.92a1.91,1.91,0,0,1-1.64,2.89H371a1.91,1.91,0,0,1-1.64-2.89l17.8-29.93a1.91,1.91,0,0,0,0-1.95L370,3.88A1.91,1.91,0,0,1,371.69,1h49.07a1.91,1.91,0,0,1,1.64,2.89L405.21,32.81A1.91,1.91,0,0,0,405.21,34.77Z"/></g></g></svg>