<svg xmlns="http://www.w3.org/2000/svg" viewBox="0 0 275.77 131.48"><defs><style>.cls-1{fill:#231f20;}</style></defs><title>Asset 19</title><g id="Layer_2" data-name="Layer 2"><g id="Layer_1-2" data-name="Layer 1"><path class="cls-1" d="M17.11,27.79H10.62V43.21H0V0H17.11C26.7,0,31.86,6.8,31.86,13.9S26.7,27.79,17.11,27.79ZM16.63,9.53h-6v8.74h6a4.38,4.38,0,1,0,0-8.74Z"/><path class="cls-1" d="M127.7,42.65l-7.55-15.87h-3.53V42.65H106.14V0H123c9.46,0,14.56,6.71,14.56,13.72a12.27,12.27,0,0,1-6.95,11.14l9.22,17.79ZM122.55,9.4h-5.93V18h5.93a4.32,4.32,0,1,0,0-8.63Z"/><path class="cls-1" d="M171.76,127.18c-3,3-7.24,4.3-11.78,4.3h-16.2V87.78H160c4.54,0,8.78,1.29,11.78,4.3,5.1,5.09,4.54,10.68,4.54,17.55S176.86,122.08,171.76,127.18Zm-7.62-27.93c-1-1.47-2.46-2.46-5.16-2.46h-4.73v24.55H159c2.7,0,4.17-1,5.16-2.45.86-1.23,1.17-2.39,1.17-9.82S165,100.48,164.14,99.25Z"/><path class="cls-1" d="M195.39,92.6a17.35,17.35,0,0,1,24,0c4.53,4.53,4.35,10.56,4.35,17s.18,12.49-4.35,17a17.35,17.35,0,0,1-24,0c-4.53-4.53-4.35-10.56-4.35-17S190.86,97.13,195.39,92.6Zm7.79,27.58a5.71,5.71,0,0,0,8.45,0c1-1.27,1.57-2.72,1.57-10.56s-.6-9.24-1.57-10.5a5.59,5.59,0,0,0-8.45,0c-1,1.27-1.57,2.66-1.57,10.5S202.21,118.92,203.18,120.19Z"/><path class="cls-1" d="M275.77,87.77l-13.63,22.41,12.77,21.3H262.69l-6.38-12.34-6.38,12.34H237.71l12.77-21.3L236.85,87.77h12.28l7.18,13.44,7.18-13.44Z"/><polygon class="cls-1" points="136.19 56.94 109.8 56.94 105.19 71.54 114.51 71.54 104.7 101.62 72.11 1.22 71.5 1.22 55.21 1.22 54.6 1.22 31.89 70.87 58.31 70.87 62.83 56.55 53.46 56.55 63.35 26.2 77.99 71.07 95.98 126.73 112.8 126.73 112.89 126.73 113.41 126.73 136.19 56.94"/></g></g></svg>