<svg xmlns="http://www.w3.org/2000/svg" viewBox="0 0 75.32 75"><defs><style>.cls-1{fill:#231f20;}</style></defs><title>Asset 10</title><g id="Layer_2" data-name="Layer 2"><g id="Layer_1-2" data-name="Layer 1"><path class="cls-1" d="M37.66,12.61S26.21,27.73,26.21,37.53c0,6.15,4.52,8.69,7.88,9.72a3.58,3.58,0,0,1-.88-2.47c0-3.82,4.46-9.71,4.46-9.71s4.46,5.79,4.46,9.71a3.64,3.64,0,0,1-.91,2.55c3.36-1,7.91-3.46,7.91-9.8C49.11,27.48,37.66,12.61,37.66,12.61Z"/><path class="cls-1" d="M37.66,12.61S26.21,27.73,26.21,37.53c0,6.15,4.52,8.69,7.88,9.72a3.58,3.58,0,0,1-.88-2.47c0-3.82,4.46-9.71,4.46-9.71s4.46,5.79,4.46,9.71a3.64,3.64,0,0,1-.91,2.55c3.36-1,7.91-3.46,7.91-9.8C49.11,27.48,37.66,12.61,37.66,12.61Z"/><path class="cls-1" d="M43.34,0c6.2,11.62,15.22,29.83,15.22,37.39a20.9,20.9,0,0,1-41.8,0c0-7.56,9-25.77,15.15-37.39A37.58,37.58,0,0,0,0,37.39,37.38,37.38,0,0,0,37.61,75,37.72,37.72,0,0,0,43.34,0Z"/></g></g></svg>