<svg xmlns="http://www.w3.org/2000/svg" viewBox="0 0 445.75 52.24"><defs><style>.cls-1{fill:#231f20;}</style></defs><title>Asset 16</title><g id="Layer_2" data-name="Layer 2"><g id="Layer_1-2" data-name="Layer 1"><polyline class="cls-1" points="92.27 51.59 81.6 18.87 74.39 41 81.22 41 77.92 51.44 58.65 51.44 75.22 0.65 75.66 0.65 87.54 0.65 87.99 0.65 104.98 51.59"/><path class="cls-1" d="M20.35,33.48H12.63V51.81H0V.43H20.35C31.75.43,37.88,8.51,37.88,17S31.75,33.48,20.35,33.48Zm-.58-21.72H12.63V22.15h7.14a5.2,5.2,0,1,0,0-10.39Z"/><path class="cls-1" d="M157,51.81l-9.09-19.12h-4.26V51.81H131V.43h20.35c11.4,0,17.53,8.08,17.53,16.52a14.78,14.78,0,0,1-8.37,13.42L171.6,51.81Zm-6.21-40h-7.14V22.15h7.14a5.2,5.2,0,1,0,0-10.39Z"/><polyline class="cls-1" points="208.68 51.45 219.35 18.73 226.56 40.86 219.73 40.86 223.02 51.3 242.29 51.3 225.73 0.52 225.29 0.52 213.41 0.52 212.96 0.52 195.97 51.45"/><path class="cls-1" d="M302.38,46.76c-3.54,3.54-8.51,5.05-13.85,5.05h-19V.43h19c5.34,0,10.32,1.52,13.85,5.05,6,6,5.34,12.55,5.34,20.64S308.37,40.77,302.38,46.76Zm-8.66-32.18c-1.15-1.73-2.89-2.89-6.06-2.89H282.1V40.55h5.56c3.17,0,4.91-1.15,6.06-2.89,1-1.44,1.37-2.81,1.37-11.54S294.73,16,293.72,14.58Z"/><path class="cls-1" d="M370.35,46.47c-3.75,3.75-8.08,5.77-14.36,5.77s-10.61-2-14.36-5.77c-5.41-5.41-5.2-12.63-5.2-20.35s-.22-14.94,5.2-20.35C345.39,2,349.72,0,356,0s10.61,2,14.36,5.77c5.41,5.41,5.2,12.63,5.2,20.35S375.76,41.06,370.35,46.47Zm-9.31-33a6.82,6.82,0,0,0-10.1,0c-1.15,1.52-1.88,3.25-1.88,12.63s.72,11,1.88,12.55a6.68,6.68,0,0,0,10.1,0c1.15-1.52,1.88-3.17,1.88-12.55S362.2,15,361,13.49Z"/><path class="cls-1" d="M431.32,52.24l-8.44-15.8-8.44,15.8H400L416,25.9l-15-25h14.36l7.5,14.5,7.5-14.5h14.36l-15,25,16,26.34Z"/></g></g></svg>