<svg xmlns="http://www.w3.org/2000/svg" viewBox="0 0 77.79 120"><defs><style>.cls-1{fill:#231f20;}</style></defs><title>Asset 6</title><g id="Layer_2" data-name="Layer 2"><g id="Layer_1-2" data-name="Layer 1"><path class="cls-1" d="M38.9,0C38.9,12.36,0,51.36,0,84.64c0,20.9,15.34,29.51,26.75,33h0A12.05,12.05,0,0,1,24.36,110c0-12.76,14.53-17.78,14.53-31.62C38.9,83,53.43,97.6,53.43,110a11.68,11.68,0,0,1-2.83,8l.34-.11c11.42-3.31,26.85-11.77,26.85-33.28C77.79,50.48,38.9,37.06,38.9,0Z"/><path class="cls-1" d="M32.79,114.53c0,3.28,2.41,4.63,4.2,5.18a6.93,6.93,0,0,0,3.8,0c1.79-.52,4.21-1.85,4.21-5.22,0-5.36-6.1-7.47-6.1-13.28C38.9,103.19,32.79,109.31,32.79,114.53Z"/></g></g></svg>