<svg xmlns="http://www.w3.org/2000/svg" viewBox="0 0 244.91 110.33"><defs><style>.cls-1{fill:#ec008c;}.cls-1,.cls-2{opacity:0.25;}.cls-2{fill:#00aeef;}.cls-3{fill:#231f20;}.cls-4{fill:#d1d3d4;}</style></defs><title>type-guides</title><g id="Layer_2" data-name="Layer 2"><g id="Layer_1-2" data-name="Layer 1"><polygon class="cls-1" points="36.14 110.18 35.89 110.18 35.76 0.09 36.01 0.09 36.14 110.18"/><rect class="cls-1" x="52.64" y="0.09" width="0.25" height="110.09"/><rect class="cls-2" x="122.28" y="-77.6" width="0.25" height="244.51" transform="translate(167.06 -77.74) rotate(90)"/><rect class="cls-1" x="61.98" y="-4.17" width="0.25" height="118.62" transform="translate(24.82 -19.07) rotate(21.72)"/><rect class="cls-1" x="75.16" y="-4.07" width="0.25" height="118.41" transform="translate(165.64 78.49) rotate(158.28)"/><rect class="cls-2" x="122.28" y="-57.6" width="0.25" height="244.51" transform="translate(187.06 -57.74) rotate(90)"/><rect class="cls-1" x="115.77" y="-4.16" width="0.25" height="118.59" transform="translate(28.64 -38.98) rotate(21.72)"/><rect class="cls-1" x="128.97" y="-4.07" width="0.25" height="118.51" transform="translate(269.45 58.66) rotate(158.28)"/><rect class="cls-1" x="70.57" y="-4.16" width="0.25" height="118.59" transform="translate(25.43 -22.25) rotate(21.72)"/><rect class="cls-1" x="120.24" y="-4.07" width="0.25" height="118.41" transform="translate(252.58 61.8) rotate(158.28)"/><rect class="cls-1" x="140.95" y="0.09" width="0.25" height="110.09"/><rect class="cls-1" x="157.45" y="0.09" width="0.25" height="110.09"/><rect class="cls-1" x="183.79" y="0.09" width="0.25" height="110.09"/><rect class="cls-1" x="198.04" y="-14.02" width="0.25" height="138.53" transform="translate(74.21 -108.94) rotate(37.37)"/><polygon class="cls-1" points="161.93 110.33 161.73 110.18 244.68 1.81 244.88 1.96 161.93 110.33"/><rect class="cls-1" x="203.79" y="-13.65" width="0.25" height="134.67" transform="translate(398.55 -27.43) rotate(142.63)"/><rect class="cls-1" x="199.12" y="-14.02" width="0.25" height="138.27" transform="translate(391.05 -22.03) rotate(142.63)"/><rect class="cls-2" x="122.23" y="-64.72" width="0.25" height="244.51" transform="translate(179.89 -64.83) rotate(90)"/><rect class="cls-1" x="100.22" y="-4.07" width="0.25" height="118.51" transform="translate(214 69.3) rotate(158.28)"/><rect class="cls-1" x="95.03" y="-4.07" width="0.25" height="118.51" transform="translate(203.98 71.22) rotate(158.28)"/><rect class="cls-1" x="40.64" y="0.09" width="0.25" height="110.09"/><rect class="cls-1" x="91.86" y="0.09" width="0.25" height="110.09"/><rect class="cls-1" x="145.7" y="0.09" width="0.25" height="110.09"/><rect class="cls-1" x="170.92" y="0.09" width="0.25" height="110.09"/><rect class="cls-1" x="179.04" y="0.09" width="0.25" height="110.09"/><rect class="cls-1" x="58.32" y="0.09" width="0.25" height="110.09"/><rect class="cls-1" x="132.64" y="0.09" width="0.25" height="110.09"/><rect class="cls-1" x="87.16" y="0.09" width="0.25" height="110.09"/><rect class="cls-1" x="78.86" y="0.09" width="0.25" height="110.09"/><rect class="cls-1" x="165.88" y="0.09" width="0.25" height="110.09"/><rect class="cls-1" x="112.16" y="0.09" width="0.25" height="110.09"/><rect class="cls-1" x="103.86" y="0.09" width="0.25" height="110.09"/><rect class="cls-1" x="191.05" y="0.09" width="0.25" height="110.09"/><path class="cls-3" d="M73.64,64.53,69.08,52.87a.4.4,0,0,0-.74,0l-2.52,6.35a.4.4,0,0,0,.37.55h2.28a.42.42,0,0,1,.39.59l-1.74,4.19a.4.4,0,0,1-.37.25h-8a.4.4,0,0,1-.37-.55L66.1,44.79a.4.4,0,0,1,.37-.25h4.45a.4.4,0,0,1,.37.25L79,64.24a.4.4,0,0,1-.37.55H74A.4.4,0,0,1,73.64,64.53Z"/><path class="cls-3" d="M117.57,64.53l4.53-11.59a.4.4,0,0,1,.74,0l2.52,6.35a.4.4,0,0,1-.37.55H122.7a.4.4,0,0,0-.37.55L124,64.53a.4.4,0,0,0,.37.25h8.15a.4.4,0,0,0,.37-.55l-7.78-19.45a.4.4,0,0,0-.37-.25h-4.46a.4.4,0,0,0-.37.25l-7.72,19.45a.4.4,0,0,0,.37.55h4.65A.4.4,0,0,0,117.57,64.53Z"/><path class="cls-3" d="M182,46.86a7.46,7.46,0,0,0-5.69-2.29h-2.51a7.46,7.46,0,0,0-5.69,2.29C166,49,166,51.38,166,54.44s-.09,5.92,2.06,8.06a7.46,7.46,0,0,0,5.69,2.29h2.51A7.46,7.46,0,0,0,182,62.5c2.14-2.14,2.06-5,2.06-8.06S184.13,49,182,46.86ZM178.3,59.41a2.52,2.52,0,0,1-2,.91h-2.51a2.52,2.52,0,0,1-2-.91c-.46-.6-.74-1.26-.74-5s.29-3.92.74-4.52a2.51,2.51,0,0,1,2-.89h2.51a2.51,2.51,0,0,1,2,.89c.46.6.74.8.74,4.52S178.76,58.81,178.3,59.41Z"/><path class="cls-3" d="M45.94,57.66H41.29a.4.4,0,0,0-.4.4v6.32a.4.4,0,0,1-.4.4h-4.2a.4.4,0,0,1-.4-.4V45a.4.4,0,0,1,.4-.4h9.65c4.52,0,6.95,3.2,6.95,6.55S50.46,57.66,45.94,57.66Zm-.23-8.6H41.29a.4.4,0,0,0-.4.4v3.32a.4.4,0,0,0,.4.4h4.42a2.06,2.06,0,1,0,0-4.12Z"/><path class="cls-3" d="M204.86,54.24l6.95-9a.4.4,0,0,0-.32-.64h-5.08a.4.4,0,0,0-.32.16L202,50.1a.4.4,0,0,1-.63,0l-4.12-5.37a.4.4,0,0,0-.32-.16h-5.08a.4.4,0,0,0-.32.64l6.93,9a.4.4,0,0,1,0,.49l-7.22,9.41a.4.4,0,0,0,.32.64h5.11a.4.4,0,0,0,.32-.16l4.38-5.75a.4.4,0,0,1,.64,0l4.4,5.75a.4.4,0,0,0,.32.16h5a.4.4,0,0,0,.32-.64l-7.16-9.41A.4.4,0,0,1,204.86,54.24Z"/><path class="cls-3" d="M98.75,64.53l-2.64-6.62a.4.4,0,0,0-.37-.25H92.55a.4.4,0,0,0-.4.4v6.33a.4.4,0,0,1-.4.4h-4.2a.4.4,0,0,1-.4-.4V44.93a.4.4,0,0,1,.4-.4H97.2c4.52,0,6.95,3.16,6.95,6.5a5.82,5.82,0,0,1-3,5.14c-.18.1-.16.34-.06.53l3,7.53a.4.4,0,0,1-.37.55H99.12A.4.4,0,0,1,98.75,64.53ZM97,49H92.55a.4.4,0,0,0-.4.4V52.7a.4.4,0,0,0,.4.4H97A2.06,2.06,0,1,0,97,49Z"/><path class="cls-3" d="M155.58,62.79a7.6,7.6,0,0,1-5.49,2h-8.74a.4.4,0,0,1-.4-.4V44.93a.4.4,0,0,1,.4-.4h8.74a7.6,7.6,0,0,1,5.49,2c2.37,2.36,2.12,4.95,2.12,8.13S157.95,60.43,155.58,62.79Zm-3.43-12.68a2.6,2.6,0,0,0-2.4-1.14h-3.4a.4.4,0,0,0-.4.4V59.95a.4.4,0,0,0,.4.4h3.4a2.6,2.6,0,0,0,2.4-1.14c.4-.57.54-1.11.54-4.55S152.55,50.68,152.15,50.11Z"/><rect class="cls-4" x="122.39" y="-122.1" width="0.25" height="244.79" transform="translate(122.81 -122.23) rotate(90)"/><rect class="cls-4" x="122.39" y="-12.34" width="0.25" height="244.79" transform="translate(232.57 -12.46) rotate(90)"/><rect class="cls-4" y="0.17" width="0.25" height="110.01"/><rect class="cls-4" x="244.66" y="0.17" width="0.25" height="110.01"/></g></g></svg>